<mxfile host="app.diagrams.net" modified="2024-01-12T10:04:40.189Z" agent="Mozilla/5.0 (Macintosh; Intel Mac OS X 10_15_7) AppleWebKit/537.36 (KHTML, like Gecko) Chrome/120.0.0.0 Safari/537.36" version="21.7.5" etag="et2loXWblsE9D9QazENc" type="github">
  <diagram name="第 1 页" id="_6-S2OD_99WH4Nv2o_Si">
    <mxGraphModel>
      <root>
        <mxCell id="0" />
        <mxCell id="1" parent="0" />
      </root>
    </mxGraphModel>
  </diagram>
</mxfile>
